<?xml version="1.0" encoding="UTF-8"?>
<svg width="75px" height="70px" viewBox="0 0 75 70" version="1.1" xmlns="http://www.w3.org/2000/svg" xmlns:xlink="http://www.w3.org/1999/xlink">
    <title>half-filled 3</title>
    <defs>
        <linearGradient x1="50%" y1="0%" x2="50%" y2="100%" id="linearGradient-1">
            <stop stop-color="#C9C9C9" offset="0%"></stop>
            <stop stop-color="#999999" offset="100%"></stop>
        </linearGradient>
        <linearGradient x1="50%" y1="0%" x2="50%" y2="100%" id="linearGradient-2">
            <stop stop-color="#FFF87C" offset="0%"></stop>
            <stop stop-color="#FFDE00" offset="100%"></stop>
        </linearGradient>
    </defs>
    <g id="Page-1" stroke="none" stroke-width="1" fill="none" fill-rule="evenodd">
        <g id="half-filled-3" transform="translate(0.500000, 0.000000)">
            <path d="M55.23,69.301 C53.236,68.194 37.5,58.741 37.5,58.741 C37.5,58.741 17.55,67.634 16.053,68.386 C14.556,69.137 11.995,67.961 12.606,64.834 C13.214,61.705 16.691,43.873 16.691,43.873 C16.691,43.873 3.684,30.639 1.752,28.795 C-0.18,26.951 0.532,23.682 3.889,23.272 C7.246,22.862 24.802,20.715 24.802,20.715 C24.802,20.715 34.037,3.032 34.891,1.414 C35.745,-0.207 39.259,-0.324 40.137,1.559 C41.016,3.443 49.33,21.272 49.33,21.272 C49.33,21.272 69.324,24.617 70.987,24.922 C73.569,25.401 73.766,28.584 72.214,30.028 C70.664,31.472 56.381,44.773 56.381,44.773 C56.381,44.773 59.37,64.563 59.675,66.992 C59.979,69.421 57.226,70.408 55.23,69.301 Z" id="Path" fill="url(#linearGradient-1)"></path>
            <path d="M37.4999939,0.17248705 L37.5,58.741 L37.5,58.741 C37.5,58.741 32.0377569,61.1758736 26.6151029,63.605233 L25.8928,63.9289007 C21.2056351,66.029743 16.7318721,68.0449767 16.053,68.386 C14.556,69.137 11.995,67.961 12.606,64.834 C12.8676709,63.4873418 13.6607573,59.417295 14.4793697,55.2174793 L14.6239928,54.4755162 C15.6608809,49.1560264 16.691,43.873 16.691,43.873 C16.691,43.873 13.5210518,40.6477294 10.0785329,37.1597754 L9.54715487,36.6214941 C6.17309085,33.2043152 2.68131646,29.6819873 1.752,28.795 C-0.18,26.951 0.532,23.682 3.889,23.272 C7.246,22.862 24.802,20.715 24.802,20.715 C24.802,20.715 34.037,3.032 34.891,1.414 C35.3173493,0.604735142 36.4066733,0.170325165 37.4999939,0.17248705 Z" id="Combined-Shape" fill="url(#linearGradient-2)"></path>
        </g>
    </g>
</svg>