<?xml version="1.0" encoding="UTF-8"?>
<svg width="74px" height="71px" viewBox="0 0 74 71" version="1.1" xmlns="http://www.w3.org/2000/svg" xmlns:xlink="http://www.w3.org/1999/xlink">
    <title>empty 3</title>
    <defs>
        <linearGradient x1="50%" y1="0%" x2="50%" y2="100%" id="linearGradient-1">
            <stop stop-color="#CACACA" offset="0%"></stop>
            <stop stop-color="#999999" offset="100%"></stop>
        </linearGradient>
    </defs>
    <g id="Page-1" stroke="none" stroke-width="1" fill="none" fill-rule="evenodd">
        <g id="empty-3" transform="translate(0.193248, 0.172479)" fill="url(#linearGradient-1)">
            <path d="M54.5367515,69.128521 C52.5427515,68.021521 36.8067515,58.568521 36.8067515,58.568521 C36.8067515,58.568521 16.8567515,67.461521 15.3597515,68.213521 C13.8627515,68.964521 11.3017515,67.788521 11.9127515,64.661521 C12.5207515,61.532521 15.9977515,43.700521 15.9977515,43.700521 C15.9977515,43.700521 2.99075154,30.466521 1.05875154,28.622521 C-0.873248462,26.778521 -0.161248462,23.509521 3.19575154,23.099521 C6.55275154,22.689521 24.1087515,20.542521 24.1087515,20.542521 C24.1087515,20.542521 33.3437515,2.85952098 34.1977515,1.24152098 C35.0517515,-0.37947902 38.5657515,-0.49647902 39.4437515,1.38652098 C40.3227515,3.27052098 48.6367515,21.099521 48.6367515,21.099521 C48.6367515,21.099521 68.6307515,24.444521 70.2937515,24.749521 C72.8757515,25.228521 73.0727515,28.411521 71.5207515,29.855521 C69.9707515,31.299521 55.6877515,44.600521 55.6877515,44.600521 C55.6877515,44.600521 58.6767515,64.390521 58.9817515,66.819521 C59.2857515,69.248521 56.5327515,70.235521 54.5367515,69.128521 Z" id="Path"></path>
        </g>
    </g>
</svg>